<?xml version="1.0" standalone="no"?>
<!DOCTYPE svg PUBLIC "-//W3C//DTD SVG 20010904//EN"
 "http://www.w3.org/TR/2001/REC-SVG-20010904/DTD/svg10.dtd">
<svg version="1.0" xmlns="http://www.w3.org/2000/svg"
 width="1280.000000pt" height="1280.000000pt" viewBox="0 0 1280.000000 1280.000000"
 preserveAspectRatio="xMidYMid meet">
<metadata>
Created by potrace 1.15, written by Peter Selinger 2001-2017
</metadata>
<g transform="translate(0.000000,1280.000000) scale(0.100000,-0.100000)"
fill="#000000" stroke="none">
<path d="M4978 10480 c-150 -24 -270 -69 -400 -151 -73 -46 -275 -244 -1667
-1633 -871 -870 -1611 -1613 -1645 -1652 -125 -145 -215 -354 -237 -551 -27
-241 58 -515 222 -717 93 -115 3215 -3227 3289 -3279 180 -125 354 -180 575
-181 477 -1 878 339 959 813 33 196 9 382 -75 569 -67 149 -92 177 -878 964
l-756 758 3235 0 c2182 0 3263 3 3319 10 156 20 332 90 456 182 449 334 531
967 181 1403 -131 164 -310 278 -531 338 l-80 22 -3290 2 -3289 3 755 758
c786 787 811 815 878 964 168 375 95 798 -189 1089 -133 136 -277 219 -460
266 -107 27 -279 38 -372 23z"/>
</g>
</svg>
